<svg width="162" height="162" viewBox="0 0 162 162" fill="none" xmlns="http://www.w3.org/2000/svg">
<g clip-path="url(#clip0_985_13783)">
<path d="M81 0C64.9798 0 49.3192 4.75057 35.9989 13.651C22.6785 22.5514 12.2965 35.2018 6.16579 50.0026C0.0350962 64.8035 -1.56897 81.0899 1.55643 96.8023C4.68183 112.515 12.3963 126.948 23.7244 138.276C35.0524 149.604 49.4853 157.318 65.1977 160.444C80.9102 163.569 97.1966 161.965 111.997 155.834C126.798 149.704 139.449 139.322 148.349 126.001C157.249 112.681 162 97.0203 162 81C161.976 59.5249 153.434 38.9364 138.249 23.7512C123.064 8.566 102.475 0.0242971 81 0ZM126.9 81C126.994 94.3656 124.735 107.643 120.226 120.226C107.643 124.735 94.3656 126.994 81 126.9C67.6345 126.994 54.3567 124.735 41.7744 120.226C37.2652 107.643 35.0059 94.3656 35.1 81C35.0059 67.6345 37.2652 54.3567 41.7744 41.7744C54.3567 37.2652 67.6345 35.0059 81 35.1C94.3656 35.0059 107.643 37.2652 120.226 41.7744C124.735 54.3567 126.994 67.6345 126.9 81ZM126.776 44.5041C144.885 52.8957 156.6 66.1311 156.6 81C156.6 95.8689 144.885 109.104 126.776 117.496C130.49 105.689 132.353 93.3775 132.3 81C132.353 68.6225 130.49 56.3115 126.776 44.5041ZM117.496 126.776C109.104 144.885 95.8689 156.6 81 156.6C66.1311 156.6 52.8957 144.885 44.5041 126.776C56.3115 130.489 68.6226 132.353 81 132.3C93.3775 132.353 105.689 130.489 117.496 126.776ZM35.2242 117.496C17.1153 109.104 5.40004 95.8689 5.40004 81C5.40004 66.1311 17.1153 52.8957 35.2242 44.5041C31.5106 56.3115 29.6471 68.6225 29.7 81C29.6471 93.3775 31.5106 105.689 35.2242 117.496ZM81 29.7C68.6226 29.6471 56.3115 31.5105 44.5041 35.2242C52.8957 17.1153 66.1311 5.4 81 5.4C95.8689 5.4 109.104 17.1153 117.496 35.2242C105.689 31.5105 93.3775 29.6471 81 29.7ZM57.24 9.2475C48.4873 16.9786 41.7712 26.7444 37.6839 37.6839C26.7444 41.7712 16.9786 48.4873 9.24754 57.24C12.9751 46.0653 19.2521 35.9115 27.5818 27.5818C35.9115 19.2521 46.0654 12.9751 57.24 9.2475ZM9.24754 104.76C16.9786 113.513 26.7444 120.229 37.6839 124.316C41.7712 135.256 48.4873 145.021 57.24 152.753C46.0654 149.025 35.9115 142.748 27.5818 134.418C19.2521 126.089 12.9751 115.935 9.24754 104.76ZM104.76 152.753C113.513 145.021 120.229 135.256 124.316 124.316C135.256 120.229 145.022 113.513 152.753 104.76C149.025 115.935 142.748 126.089 134.418 134.418C126.089 142.748 115.935 149.025 104.76 152.753ZM124.316 37.6839C120.229 26.7444 113.513 16.9786 104.76 9.2475C115.935 12.9751 126.089 19.2521 134.418 27.5818C142.748 35.9115 149.025 46.0653 152.753 57.24C145.022 48.4873 135.256 41.7712 124.316 37.6839Z" fill="white"/>
<path d="M53.9992 62.1C51.1349 62.1 48.3879 63.2378 46.3625 65.2632C44.3371 67.2886 43.1992 70.0356 43.1992 72.9C43.1992 73.6161 43.4837 74.3028 43.99 74.8092C44.4964 75.3155 45.1831 75.6 45.8992 75.6C46.6153 75.6 47.3021 75.3155 47.8084 74.8092C48.3148 74.3028 48.5992 73.6161 48.5992 72.9C48.5992 71.832 48.9159 70.7879 49.5093 69.8999C50.1026 69.0119 50.946 68.3197 51.9327 67.911C52.9195 67.5023 54.0052 67.3954 55.0527 67.6037C56.1002 67.8121 57.0624 68.3264 57.8176 69.0816C58.5728 69.8368 59.0871 70.799 59.2955 71.8465C59.5038 72.894 59.3969 73.9797 58.9882 74.9665C58.5795 75.9532 57.8873 76.7966 56.9993 77.3899C56.1113 77.9833 55.0672 78.3 53.9992 78.3C53.2831 78.3 52.5964 78.5844 52.09 79.0908C51.5837 79.5971 51.2992 80.2839 51.2992 81C51.2992 81.7161 51.5837 82.4028 52.09 82.9092C52.5964 83.4155 53.2831 83.7 53.9992 83.7C55.0672 83.7 56.1113 84.0167 56.9993 84.61C57.8873 85.2034 58.5795 86.0468 58.9882 87.0335C59.3969 88.0202 59.5038 89.106 59.2955 90.1535C59.0871 91.201 58.5728 92.1632 57.8176 92.9184C57.0624 93.6736 56.1002 94.1879 55.0527 94.3962C54.0052 94.6046 52.9195 94.4976 51.9327 94.0889C50.946 93.6802 50.1026 92.9881 49.5093 92.1001C48.9159 91.212 48.5992 90.168 48.5992 89.1C48.5992 88.3839 48.3148 87.6971 47.8084 87.1908C47.3021 86.6844 46.6153 86.4 45.8992 86.4C45.1831 86.4 44.4964 86.6844 43.99 87.1908C43.4837 87.6971 43.1992 88.3839 43.1992 89.1C43.1981 90.9054 43.6496 92.6822 44.5125 94.2681C45.3753 95.854 46.622 97.1982 48.1384 98.178C49.6549 99.1577 51.3927 99.7416 53.1931 99.8764C54.9935 100.011 56.7989 99.6924 58.4443 98.9494C60.0897 98.2063 61.5225 97.0626 62.6119 95.6229C63.7012 94.1831 64.4122 92.4933 64.6799 90.7078C64.9475 88.9224 64.7633 87.0983 64.1441 85.4024C63.5249 83.7065 62.4905 82.1929 61.1353 81C62.7801 79.5494 63.9444 77.6324 64.4731 75.5041C65.0019 73.3757 64.8703 71.1368 64.0956 69.0851C63.3209 67.0334 61.94 65.2661 60.1365 64.0184C58.333 62.7706 56.1923 62.1015 53.9992 62.1Z" fill="white"/>
<path d="M107.999 99.9C110.864 99.9 113.611 98.7621 115.636 96.7367C117.661 94.7113 118.799 91.9643 118.799 89.1V72.9C118.799 70.0356 117.661 67.2886 115.636 65.2632C113.611 63.2378 110.864 62.1 107.999 62.1C105.135 62.1 102.388 63.2378 100.362 65.2632C98.3371 67.2886 97.1992 70.0356 97.1992 72.9V89.1C97.1992 91.9643 98.3371 94.7113 100.362 96.7367C102.388 98.7621 105.135 99.9 107.999 99.9ZM102.599 72.9C102.599 71.4678 103.168 70.0943 104.181 69.0816C105.194 68.0689 106.567 67.5 107.999 67.5C109.431 67.5 110.805 68.0689 111.818 69.0816C112.83 70.0943 113.399 71.4678 113.399 72.9V89.1C113.399 90.5321 112.83 91.9057 111.818 92.9184C110.805 93.9311 109.431 94.5 107.999 94.5C106.567 94.5 105.194 93.9311 104.181 92.9184C103.168 91.9057 102.599 90.5321 102.599 89.1V72.9Z" fill="white"/>
<path d="M70.1992 78.3V89.1C70.1992 91.236 70.8326 93.3241 72.0193 95.1001C73.2061 96.8762 74.8928 98.2604 76.8662 99.0779C78.8397 99.8953 81.0112 100.109 83.1062 99.6925C85.2012 99.2757 87.1256 98.2471 88.636 96.7367C90.1464 95.2263 91.175 93.3019 91.5917 91.207C92.0084 89.112 91.7945 86.9404 90.9771 84.967C90.1597 82.9936 88.7754 81.3068 86.9994 80.1201C85.2233 78.9334 83.1353 78.3 80.9992 78.3C79.0977 78.3112 77.2337 78.8294 75.5992 79.8012V78.3C75.5992 75.4356 76.7371 72.6886 78.7625 70.6632C80.7879 68.6378 83.5349 67.5 86.3992 67.5C87.1153 67.5 87.8021 67.2155 88.3084 66.7092C88.8148 66.2028 89.0992 65.5161 89.0992 64.8C89.0992 64.0839 88.8148 63.3971 88.3084 62.8908C87.8021 62.3844 87.1153 62.1 86.3992 62.1C82.104 62.1043 77.986 63.8124 74.9488 66.8496C71.9117 69.8867 70.2035 74.0048 70.1992 78.3ZM80.9992 83.7C82.0672 83.7 83.1113 84.0167 83.9993 84.61C84.8873 85.2034 85.5795 86.0468 85.9882 87.0335C86.3969 88.0202 86.5038 89.106 86.2955 90.1535C86.0871 91.201 85.5728 92.1632 84.8176 92.9184C84.0624 93.6736 83.1002 94.1879 82.0527 94.3962C81.0052 94.6046 79.9194 94.4976 78.9327 94.0889C77.946 93.6802 77.1026 92.9881 76.5093 92.1001C75.9159 91.212 75.5992 90.168 75.5992 89.1C75.5992 87.6678 76.1681 86.2943 77.1808 85.2816C78.1935 84.2689 79.567 83.7 80.9992 83.7Z" fill="white"/>
</g>
<defs>
<clipPath id="clip0_985_13783">
<rect width="162" height="162" fill="white"/>
</clipPath>
</defs>
</svg>
